<?xml version="1.0" encoding="UTF-8" standalone="no"?>
<!-- Created with Inkscape (http://www.inkscape.org/) -->

<svg
   xmlns:dc="http://purl.org/dc/elements/1.1/"
   xmlns:cc="http://creativecommons.org/ns#"
   xmlns:rdf="http://www.w3.org/1999/02/22-rdf-syntax-ns#"
   xmlns:svg="http://www.w3.org/2000/svg"
   xmlns="http://www.w3.org/2000/svg"
   xmlns:sodipodi="http://sodipodi.sourceforge.net/DTD/sodipodi-0.dtd"
   xmlns:inkscape="http://www.inkscape.org/namespaces/inkscape"
   width="210mm"
   height="297mm"
   viewBox="0 0 744.09448819 1052.3622047"
   id="svg4342"
   version="1.1"
   inkscape:version="0.91 r13725"
   sodipodi:docname="EvilSpore.svg">
  <defs
     id="defs4344" />
  <sodipodi:namedview
     id="base"
     pagecolor="#ffffff"
     bordercolor="#666666"
     borderopacity="1.0"
     inkscape:pageopacity="0.0"
     inkscape:pageshadow="2"
     inkscape:zoom="2.8"
     inkscape:cx="346.42857"
     inkscape:cy="131.83467"
     inkscape:document-units="px"
     inkscape:current-layer="layer1"
     showgrid="false"
     inkscape:window-width="1440"
     inkscape:window-height="785"
     inkscape:window-x="0"
     inkscape:window-y="0"
     inkscape:window-maximized="1" />
  <metadata
     id="metadata4347">
    <rdf:RDF>
      <cc:Work
         rdf:about="">
        <dc:format>image/svg+xml</dc:format>
        <dc:type
           rdf:resource="http://purl.org/dc/dcmitype/StillImage" />
        <dc:title></dc:title>
      </cc:Work>
    </rdf:RDF>
  </metadata>
  <g
     inkscape:label="Layer 1"
     inkscape:groupmode="layer"
     id="layer1">
    <g
       id="g4227"
       transform="matrix(1,0,0,-1,62.993981,1344.5502)">
      <path
         sodipodi:type="star"
         style="fill:#191236;fill-opacity:0.55769228;stroke:#212f15;stroke-width:4.36399984;stroke-linejoin:round;stroke-miterlimit:4;stroke-dasharray:none;stroke-opacity:0.92948716"
         id="path4182"
         sodipodi:sides="5"
         sodipodi:cx="282.12311"
         sodipodi:cy="-443.16992"
         sodipodi:r1="18.027756"
         sodipodi:r2="39.05127"
         sodipodi:arg1="0.98279372"
         sodipodi:arg2="0.87605852"
         inkscape:flatsided="false"
         inkscape:rounded="0"
         inkscape:randomized="0"
         d="m 292.12311,-428.16992 15,15.00003 -36.17568,-15.85421 -9.63062,18.90111 3.89935,-39.30433 -20.95205,-3.3185 38.58561,-8.43721 -3.31846,-20.95206 19.94786,34.08986 18.90113,-9.63059 z"
         transform="scale(1,-1)"
         inkscape:transform-center-x="-0.22453448"
         inkscape:transform-center-y="-1.5065537" />
      <path
         style="fill:#03120a;fill-opacity:0.9807692;stroke:#f2efef;stroke-width:2.71229529;stroke-linejoin:round;stroke-miterlimit:4;stroke-dasharray:none;stroke-opacity:0.17307691"
         id="path4187"
         sodipodi:type="arc"
         sodipodi:cx="274.1192"
         sodipodi:cy="-449.9657"
         sodipodi:rx="1.5537491"
         sodipodi:ry="1.5538304"
         sodipodi:start="5.3438842"
         sodipodi:end="5.2999447"
         d="m 275.03646,-451.21987 a 1.5537491,1.5538304 0 0 1 0.34684,2.15765 1.5537491,1.5538304 0 0 1 -2.15359,0.37054 1.5537491,1.5538304 0 0 1 -0.39415,-2.1495 1.5537491,1.5538304 0 0 1 2.14493,-0.41777 l -0.86129,1.29325 z"
         transform="scale(1,-1)" />
      <path
         style="fill:#03120a;fill-opacity:0.9807692;stroke:#f2efef;stroke-width:2.71229529;stroke-linejoin:round;stroke-miterlimit:4;stroke-dasharray:none;stroke-opacity:0.17307691"
         id="path4187-0"
         sodipodi:type="arc"
         sodipodi:cx="285.02783"
         sodipodi:cy="-450.01776"
         sodipodi:rx="1.5537491"
         sodipodi:ry="1.5538304"
         sodipodi:start="5.3438842"
         sodipodi:end="5.2999447"
         d="m 285.94509,-451.27193 a 1.5537491,1.5538304 0 0 1 0.34684,2.15764 1.5537491,1.5538304 0 0 1 -2.15359,0.37055 1.5537491,1.5538304 0 0 1 -0.39415,-2.14951 1.5537491,1.5538304 0 0 1 2.14493,-0.41776 l -0.86129,1.29325 z"
         transform="scale(1,-1)" />
      <path
         style="fill:none;fill-rule:evenodd;stroke:#000024;stroke-width:1px;stroke-linecap:butt;stroke-linejoin:miter;stroke-opacity:0.79487179"
         d="m 268.74624,436.2524 5,5 5,-5 5,5 5,-5 5,5 0,0 0,0"
         id="path4225"
         inkscape:connector-curvature="0" />
    </g>
  </g>
</svg>
